<svg width="1533" height="1215" viewBox="0 0 1533 1215" fill="none" xmlns="http://www.w3.org/2000/svg">
<line x1="745.747" y1="861.253" x2="747.629" y2="1139.74" stroke="black" stroke-width="73" stroke-linecap="round"/>
<line x1="759.594" y1="959.658" x2="950.659" y2="1163.41" stroke="black" stroke-width="73" stroke-linecap="round"/>
<path d="M522.256 1173.21L740.772 946.746" stroke="black" stroke-width="73" stroke-linecap="round"/>
<mask id="path-4-inside-1_206_21" fill="white">
<rect x="154.001" y="125" width="1170" height="745" rx="39"/>
</mask>
<rect x="154.001" y="125" width="1170" height="745" rx="39" stroke="black" stroke-width="146" mask="url(#path-4-inside-1_206_21)"/>
<rect x="127.012" y="36.5" width="1224.41" height="122.792" rx="61.3958" stroke="url(#paint0_linear_206_21)" stroke-width="73"/>
<path d="M1112.31 585.1L1177.18 607.51L1494.45 717.201L1503.89 720.739L1509.79 725.457L1514.5 732.534L1515.68 740.79L1514.5 749.047L1508.61 758.482L1326.97 833.968L1244.41 1019.14L1238.51 1022.68L1230.25 1021.5L1223.18 1019.14L1216.1 1012.07L1078.1 619.305L1075.74 609.869V599.254L1078.1 594.536L1082.82 588.639L1088.72 583.921L1095.79 582.742H1100.51H1105.23L1112.31 585.1Z" fill="black" fill-opacity="0.3"/>
<path d="M1052.15 717.201L1045.08 706.586L1030.92 693.612L1019.13 680.637L1007.33 662.945L999.077 641.715L995.538 622.843V607.51L996.718 588.639L1002.61 570.947L1010.87 555.614L1022.67 539.101L1040.36 523.768L1049.79 516.691L1071.02 507.256L1091.08 502.538H1113.48L1125.28 503.717L1138.25 507.256L1148.87 511.974L1155.95 514.332L1163.02 519.05L1170.1 523.768L1176 528.486L1183.07 535.563L1191.33 544.999L1203.12 556.793L1213.74 560.332L1222 559.152L1227.89 556.793L1236.15 549.716L1238.51 542.64V532.024L1236.15 523.768L1230.25 514.332L1220.82 502.538L1206.66 490.743L1190.15 478.948L1172.46 468.333L1158.3 462.436L1142.97 457.718L1120.56 453H1093.43L1075.74 455.359L1054.51 460.077L1033.28 469.513L1014.41 481.307L997.897 493.102L981.385 511.974L966.051 533.204L955.436 555.614L948.359 578.024L946 598.075V619.305L949.539 646.433L957.795 672.381L964.872 688.894L983.743 713.662L1000.26 731.354L1017.95 744.329L1027.38 745.508H1035.64L1043.9 740.79L1048.61 736.072L1052.15 728.996V717.201Z" fill="black" fill-opacity="0.3"/>
<path d="M1129.62 539.837L1194.49 562.247L1511.77 671.938L1521.21 675.476L1527.1 680.194L1531.82 687.271L1533 695.527L1531.82 703.783L1525.92 713.219L1344.29 788.705L1261.72 973.881L1255.83 977.42L1247.57 976.24L1240.49 973.881L1233.42 966.805L1095.42 574.042L1093.06 564.606V553.991L1095.42 549.273L1100.14 543.376L1106.03 538.658L1113.11 537.478H1117.83H1122.55L1129.62 539.837Z" fill="#3ADBB4"/>
<path d="M1069.47 671.938L1062.39 661.322L1048.24 648.348L1036.44 635.374L1024.65 617.682L1016.39 596.452L1012.86 577.58V562.247L1014.03 543.376L1019.93 525.684L1028.19 510.351L1039.98 493.838L1057.67 478.505L1067.11 471.428L1088.34 461.992L1108.39 457.275H1130.8L1142.6 458.454L1155.57 461.992L1166.19 466.71L1173.26 469.069L1180.34 473.787L1187.42 478.505L1193.31 483.223L1200.39 490.3L1208.65 499.735L1220.44 511.53L1231.06 515.068L1239.31 513.889L1245.21 511.53L1253.47 504.453L1255.83 497.376V486.761L1253.47 478.505L1247.57 469.069L1238.13 457.275L1223.98 445.48L1207.47 433.685L1189.78 423.07L1175.62 417.173L1160.29 412.455L1137.88 407.737H1110.75L1093.06 410.096L1071.83 414.814L1050.6 424.249L1031.73 436.044L1015.21 447.839L998.701 466.71L983.368 487.941L972.753 510.351L965.676 532.761L963.317 552.811V574.042L966.856 601.17L975.112 627.118L982.189 643.63L1001.06 668.399L1017.57 686.091L1035.26 699.065L1044.7 700.245H1052.96L1061.21 695.527L1065.93 690.809L1069.47 683.732V671.938Z" fill="#3ADBB4"/>
<path d="M530.604 324.469C527.985 312.329 535.848 300.314 548.193 298.96C583.601 295.075 619.477 298.155 653.379 308.091C694.444 320.126 731.189 341.804 759.986 370.983C788.783 400.161 808.635 435.831 817.58 474.468C826.525 513.105 824.254 553.373 810.991 591.293C797.728 629.213 772.383 665.135 740.406 692.352C708.429 719.568 656.664 737.444 647.228 739.53C596.354 750.777 562.628 744.264 541.348 740.214C538.932 739.754 536.556 739.138 534.245 738.298C498.397 725.268 462.249 701.501 434.159 675.933C430.397 672.508 428.29 667.654 428.179 662.569V662.569C427.809 645.481 448.858 635.871 462.306 646.419C478.464 659.092 496.055 671.637 514.226 683.937C538.78 700.559 577.726 709.937 623.639 702.967C669.552 695.997 697.971 670.357 723.726 648.437C744.726 626.437 756.544 603.978 767.226 573.437C777.907 542.897 777.358 515.443 770.154 484.325C762.95 453.207 746.961 424.479 723.768 400.978C700.576 377.478 670.981 360.019 637.908 350.326C611.717 342.65 584.063 340.054 556.682 342.617C544.665 343.742 533.148 336.267 530.604 324.469V324.469Z" fill="black" fill-opacity="0.3"/>
<path d="M593.911 547.916L526.025 558.011L193.961 607.31L183.958 608.531L176.548 607.072L169.095 602.975L164.234 596.198L161.466 588.331L162.337 577.238L288.554 426.374L276.226 224.001L279.821 218.138L287.689 215.37L295.055 214.192L304.6 217.199L608.444 501.778L614.895 509.057L619.799 518.471L619.887 523.745L618.427 531.155L615.377 538.064L609.645 542.379L605.461 544.559L601.277 546.739L593.911 547.916Z" fill="black" fill-opacity="0.3"/>
<path d="M586.229 402.968L597.41 409.113L615.956 414.081L632.411 420.138L651.045 430.38L668.176 445.394L680.032 460.496L687.116 474.095L694.789 491.377L697.732 509.792L697.494 527.205L694.662 547.299L686.055 569.071L680.956 579.707L666.487 597.883L650.883 611.331L631.009 621.684L620.003 626.087L606.862 628.943L595.268 629.663L587.902 630.841L579.446 629.926L570.99 629.011L563.58 627.552L554.034 624.545L542.353 619.991L526.443 614.979L515.394 616.746L508.616 621.606L504.476 626.423L500.423 636.513L501.601 643.879L506.505 653.294L512.411 659.526L522.001 665.17L535.818 671.271L553.82 675.193L573.914 678.025L594.509 679.265L609.786 677.957L625.564 675.057L647.619 668.888L671.678 656.355L686.279 646.089L702.928 632.096L717.397 613.92L728.685 594.741L737.881 576.651L743.807 552.286L747.597 526.373L746.658 501.594L742.581 478.45L735.409 459.577L725.601 440.748L709.93 418.324L690.619 399.125L676.714 387.75L648.535 374.502L625.716 366.44L604.031 363.107L595.118 366.42L587.796 370.234L582.653 378.233L580.649 384.597L580.78 392.508L586.229 402.968Z" fill="black" fill-opacity="0.3"/>
<path d="M559.91 566.916L492.024 577.011L159.961 626.31L149.958 627.531L142.548 626.072L135.094 621.975L130.234 615.198L127.465 607.331L128.336 596.238L254.553 445.374L242.225 243.001L245.821 237.138L253.688 234.37L261.054 233.192L270.6 236.199L574.443 520.778L580.895 528.057L585.799 537.471L585.886 542.745L584.427 550.155L581.376 557.064L575.645 561.379L571.461 563.559L567.276 565.739L559.91 566.916Z" fill="#3ADBB4"/>
<path d="M552.229 421.968L563.409 428.113L581.956 433.081L598.41 439.138L617.044 449.38L634.175 464.394L646.032 479.496L653.116 493.095L660.788 510.377L663.732 528.792L663.493 546.205L660.661 566.299L652.055 588.071L646.956 598.707L632.486 616.883L616.883 630.331L597.008 640.684L586.003 645.087L572.861 647.943L561.267 648.663L553.901 649.841L545.445 648.926L536.989 648.011L529.58 646.552L520.034 643.545L508.352 638.991L492.443 633.979L481.393 635.746L474.616 640.606L470.476 645.423L466.423 655.513L467.6 662.879L472.504 672.294L478.411 678.526L488 684.17L501.818 690.271L519.819 694.193L539.913 697.025L560.508 698.265L575.785 696.957L591.564 694.057L613.618 687.888L637.677 675.355L652.278 665.089L668.927 651.096L683.397 632.92L694.684 613.741L703.88 595.651L709.806 571.286L713.596 545.373L712.657 520.594L708.58 497.45L701.409 478.577L691.601 459.748L675.929 437.324L656.619 418.125L642.714 406.75L614.534 393.502L591.716 385.44L570.031 382.107L561.118 385.42L553.795 389.234L548.653 397.233L546.648 403.597L546.779 411.508L552.229 421.968Z" fill="#3ADBB4"/>
<path d="M496.604 343.469C493.985 331.329 501.848 319.314 514.193 317.96C549.601 314.075 585.477 317.155 619.379 327.091C660.444 339.126 697.189 360.804 725.986 389.983C754.783 419.161 774.635 454.831 783.58 493.468C792.525 532.105 790.254 572.373 776.991 610.293C763.728 648.213 738.383 684.135 706.406 711.352C674.429 738.568 622.664 756.444 613.228 758.53C562.354 769.777 528.628 763.264 507.348 759.214C504.932 758.754 502.556 758.138 500.245 757.298C464.397 744.268 428.249 720.501 400.159 694.933C396.397 691.508 394.29 686.654 394.179 681.569V681.569C393.809 664.481 414.858 654.871 428.306 665.419C444.464 678.092 462.055 690.637 480.226 702.937C504.78 719.559 543.726 728.937 589.639 721.967C635.552 714.997 663.971 689.357 689.726 667.437C710.726 645.437 722.544 622.978 733.226 592.437C743.907 561.897 743.358 534.443 736.154 503.325C728.95 472.207 712.961 443.479 689.768 419.978C666.576 396.478 636.981 379.019 603.908 369.326C577.717 361.65 550.063 359.054 522.682 361.617C510.665 362.742 499.148 355.267 496.604 343.469V343.469Z" fill="#3ADBB4"/>
<defs>
<linearGradient id="paint0_linear_206_21" x1="739.219" y1="0" x2="739.219" y2="195.792" gradientUnits="userSpaceOnUse">
<stop offset="0.890625"/>
<stop offset="1" stop-opacity="0"/>
</linearGradient>
</defs>
</svg>
